<svg id="Capa_1" enable-background="new 0 0 512 512" height="512" viewBox="0 0 512 512" width="512" xmlns="http://www.w3.org/2000/svg"><g><path d="m497 0h-482c-8.284 0-15 6.716-15 15v482c0 8.284 6.716 15 15 15h482c8.284 0 15-6.716 15-15v-482c0-8.284-6.716-15-15-15zm-241 301.125c-58.104 0-105.375-47.271-105.375-105.375s47.271-105.375 105.375-105.375h70.374c8.284 0 15 6.716 15 15v60.25c0 8.284-6.716 15-15 15h-70.374c-8.34 0-15.125 6.785-15.125 15.125s6.785 15.125 15.125 15.125c58.104 0 105.375 47.271 105.375 105.375s-47.271 105.375-105.375 105.375h-90.375c-8.284 0-15-6.716-15-15v-60.25c0-8.284 6.716-15 15-15h90.375c8.34 0 15.125-6.785 15.125-15.125s-6.785-15.125-15.125-15.125z"/><path d="m180.625 195.75c0 41.562 33.813 75.375 75.375 75.375 24.882 0 45.125 20.243 45.125 45.125s-20.243 45.125-45.125 45.125h-75.375v30.25h75.375c41.562 0 75.375-33.813 75.375-75.375s-33.813-75.375-75.375-75.375c-24.882 0-45.125-20.243-45.125-45.125s20.243-45.125 45.125-45.125h55.374v-30.25h-55.374c-41.562 0-75.375 33.813-75.375 75.375z"/></g></svg>